<svg xmlns="http://www.w3.org/2000/svg"  viewBox="0 0 64 64" width="64px" height="64px"><linearGradient id="9Z_GYZioWqaxIbDPrDuT3a" x1="32" x2="32" y1="-443" y2="-498.012" gradientTransform="matrix(1 0 0 -1 0 -438)" gradientUnits="userSpaceOnUse" spreadMethod="reflect"><stop offset="0" stop-color="#1a6dff"/><stop offset="1" stop-color="#c822ff"/></linearGradient><path fill="url(#9Z_GYZioWqaxIbDPrDuT3a)" d="M51.121,15.707l-8.828-8.828C41.727,6.313,40.973,6,40.171,6H15c-1.654,0-3,1.346-3,3v40v2v4 c0,1.654,1.346,3,3,3h34c1.654,0,3-1.346,3-3v-4v-2V17.828C52,17.027,51.688,16.273,51.121,15.707z M48.586,16H43 c-0.551,0-1-0.448-1-1V9.414L48.586,16z M49,56H15c-0.551,0-1-0.448-1-1v-1.185C14.314,53.928,14.648,54,15,54h34 c0.352,0,0.686-0.072,1-0.184V55C50,55.552,49.551,56,49,56z M50,51c0,0.552-0.449,1-1,1H15c-0.551,0-1-0.448-1-1v-2V9 c0-0.552,0.449-1,1-1h25v7c0,1.654,1.346,3,3,3h7v31V51z"/><linearGradient id="9Z_GYZioWqaxIbDPrDuT3b" x1="23" x2="23" y1="-460" y2="-466" gradientTransform="matrix(1 0 0 -1 0 -438)" gradientUnits="userSpaceOnUse" spreadMethod="reflect"><stop offset="0" stop-color="#6dc7ff"/><stop offset="1" stop-color="#e6abff"/></linearGradient><path fill="url(#9Z_GYZioWqaxIbDPrDuT3b)" d="M23,22c-1.654,0-3,1.346-3,3s1.346,3,3,3s3-1.346,3-3S24.654,22,23,22z M23,26 c-0.551,0-1-0.449-1-1s0.449-1,1-1s1,0.449,1,1S23.551,26,23,26z"/><linearGradient id="9Z_GYZioWqaxIbDPrDuT3c" x1="35" x2="35" y1="-462" y2="-464" gradientTransform="matrix(1 0 0 -1 0 -438)" gradientUnits="userSpaceOnUse" spreadMethod="reflect"><stop offset="0" stop-color="#6dc7ff"/><stop offset="1" stop-color="#e6abff"/></linearGradient><path fill="url(#9Z_GYZioWqaxIbDPrDuT3c)" d="M28 24H42V26H28z"/><linearGradient id="9Z_GYZioWqaxIbDPrDuT3d" x1="23" x2="23" y1="-468" y2="-474" gradientTransform="matrix(1 0 0 -1 0 -438)" gradientUnits="userSpaceOnUse" spreadMethod="reflect"><stop offset="0" stop-color="#6dc7ff"/><stop offset="1" stop-color="#e6abff"/></linearGradient><path fill="url(#9Z_GYZioWqaxIbDPrDuT3d)" d="M23,30c-1.654,0-3,1.346-3,3s1.346,3,3,3s3-1.346,3-3S24.654,30,23,30z M23,34 c-0.551,0-1-0.449-1-1s0.449-1,1-1s1,0.449,1,1S23.551,34,23,34z"/><linearGradient id="9Z_GYZioWqaxIbDPrDuT3e" x1="35" x2="35" y1="-470" y2="-472" gradientTransform="matrix(1 0 0 -1 0 -438)" gradientUnits="userSpaceOnUse" spreadMethod="reflect"><stop offset="0" stop-color="#6dc7ff"/><stop offset="1" stop-color="#e6abff"/></linearGradient><path fill="url(#9Z_GYZioWqaxIbDPrDuT3e)" d="M28 32H42V34H28z"/><linearGradient id="9Z_GYZioWqaxIbDPrDuT3f" x1="23" x2="23" y1="-476" y2="-482" gradientTransform="matrix(1 0 0 -1 0 -438)" gradientUnits="userSpaceOnUse" spreadMethod="reflect"><stop offset="0" stop-color="#6dc7ff"/><stop offset="1" stop-color="#e6abff"/></linearGradient><path fill="url(#9Z_GYZioWqaxIbDPrDuT3f)" d="M23,38c-1.654,0-3,1.346-3,3s1.346,3,3,3s3-1.346,3-3S24.654,38,23,38z M23,42 c-0.551,0-1-0.449-1-1s0.449-1,1-1s1,0.449,1,1S23.551,42,23,42z"/><linearGradient id="9Z_GYZioWqaxIbDPrDuT3g" x1="35" x2="35" y1="-478" y2="-480" gradientTransform="matrix(1 0 0 -1 0 -438)" gradientUnits="userSpaceOnUse" spreadMethod="reflect"><stop offset="0" stop-color="#6dc7ff"/><stop offset="1" stop-color="#e6abff"/></linearGradient><path fill="url(#9Z_GYZioWqaxIbDPrDuT3g)" d="M28 40H42V42H28z"/></svg>