<svg xmlns="http://www.w3.org/2000/svg" xmlns:xlink="http://www.w3.org/1999/xlink" viewBox="0 0 512 512" width="64px" height="64px"><defs><linearGradient id="Z7lAOlLznhYzPRN1iN3bxa" x1="134.793" x2="134.793" y1="423.291" y2="133.743" gradientUnits="userSpaceOnUse"><stop offset=".322" stop-color="#a163f5"/><stop offset=".466" stop-color="#b074ee"/><stop offset=".752" stop-color="#d8a1dd"/><stop offset=".898" stop-color="#efbad3"/></linearGradient><linearGradient id="Z7lAOlLznhYzPRN1iN3bxb" x1="61.537" x2="61.537" y1="423.291" y2="133.743" xlink:href="#Z7lAOlLznhYzPRN1iN3bxa"/><linearGradient id="Z7lAOlLznhYzPRN1iN3bxc" x1="335.472" x2="335.472" y1="423.291" y2="133.743" xlink:href="#Z7lAOlLznhYzPRN1iN3bxa"/><linearGradient id="Z7lAOlLznhYzPRN1iN3bxd" x1="305.512" x2="305.512" y1="423.291" y2="133.743" xlink:href="#Z7lAOlLznhYzPRN1iN3bxa"/><linearGradient id="Z7lAOlLznhYzPRN1iN3bxe" x1="377.377" x2="377.377" y1="423.291" y2="133.743" xlink:href="#Z7lAOlLznhYzPRN1iN3bxa"/><linearGradient id="Z7lAOlLznhYzPRN1iN3bxf" x1="256" x2="256" y1="423.291" y2="133.743" xlink:href="#Z7lAOlLznhYzPRN1iN3bxa"/><linearGradient id="Z7lAOlLznhYzPRN1iN3bxg" x1="256.001" x2="256.001" y1="423.291" y2="133.743" xlink:href="#Z7lAOlLznhYzPRN1iN3bxa"/></defs><path fill="url(#Z7lAOlLznhYzPRN1iN3bxa)" d="M160.933,231.174h-7.07V224.1a19.07,19.07,0,0,0-38.14,0v7.071h-7.07a19.089,19.089,0,0,0-19.07,19.07,19.091,19.091,0,0,0,19.07,19.069h7.07v7.071a19.07,19.07,0,0,0,38.14,0v-7.071h7.07a19.07,19.07,0,1,0,0-38.139Zm0,26.139h-13.07a6,6,0,0,0-6,6v13.071a7.07,7.07,0,1,1-14.14,0V263.313a6,6,0,0,0-6-6h-13.07a7.078,7.078,0,0,1-7.07-7.069,7.088,7.088,0,0,1,7.07-7.07h13.07a6,6,0,0,0,6-6V224.1a7.078,7.078,0,0,1,7.07-7.069,7.074,7.074,0,0,1,7.07,7.069v13.071a6,6,0,0,0,6,6h13.07a7.07,7.07,0,1,1,0,14.139Z"/><path fill="url(#Z7lAOlLznhYzPRN1iN3bxb)" d="M66.372,273.263a6,6,0,0,0-11.63,2.959c.6,2.343,1.312,4.682,2.127,6.953a6,6,0,1,0,11.294-4.055C67.477,277.208,66.874,275.237,66.372,273.263Z"/><path fill="url(#Z7lAOlLznhYzPRN1iN3bxc)" d="M313.409,201.883a6,6,0,0,0,8.468-.532,74.157,74.157,0,0,1,33.478-21.763,6,6,0,1,0-3.579-11.453,86.134,86.134,0,0,0-38.9,25.279A6,6,0,0,0,313.409,201.883Z"/><path fill="url(#Z7lAOlLznhYzPRN1iN3bxd)" d="M310.347,206.21a6,6,0,0,0-8.162,2.323,86.278,86.278,0,0,0-4.119,8.457,6,6,0,1,0,11.061,4.654,73.953,73.953,0,0,1,3.542-7.273A6,6,0,0,0,310.347,206.21Z"/><path fill="url(#Z7lAOlLznhYzPRN1iN3bxe)" d="M443.377,250.244a66,66,0,1,0-66,66A66.074,66.074,0,0,0,443.377,250.244Zm-60,53.659V285.734a36.08,36.08,0,0,0,29.491-29.49h18.168A54.092,54.092,0,0,1,383.377,303.9Zm0-107.318a54.092,54.092,0,0,1,47.659,47.659H412.868a36.081,36.081,0,0,0-29.491-29.491Zm18,53.659a24,24,0,1,1-24-24A24.027,24.027,0,0,1,401.377,250.244Zm-30-53.659v18.168a36.081,36.081,0,0,0-29.49,29.491H323.719A54.091,54.091,0,0,1,371.377,196.585Zm0,107.318a54.091,54.091,0,0,1-47.658-47.659h18.168a36.08,36.08,0,0,0,29.49,29.49Z"/><path fill="url(#Z7lAOlLznhYzPRN1iN3bxf)" d="M225.14,114.975a6,6,0,1,0,8.472,8.5,31.706,31.706,0,0,1,44.776,0,6,6,0,0,0,8.472-8.5,43.71,43.71,0,0,0-61.72,0Z"/><path fill="url(#Z7lAOlLznhYzPRN1iN3bxf)" d="M309.316,98.533a6,6,0,0,0,4.24-10.245,81.465,81.465,0,0,0-115.112,0,6,6,0,1,0,8.48,8.49,69.467,69.467,0,0,1,98.152,0A5.979,5.979,0,0,0,309.316,98.533Z"/><path fill="url(#Z7lAOlLznhYzPRN1iN3bxf)" d="M180.241,70.094a107.186,107.186,0,0,1,151.518,0,6,6,0,0,0,8.482-8.489,119.187,119.187,0,0,0-168.482,0,6,6,0,0,0,8.482,8.489Z"/><path fill="url(#Z7lAOlLznhYzPRN1iN3bxe)" d="M377.377,266.244a16,16,0,1,0-16-16A16.018,16.018,0,0,0,377.377,266.244Zm0-20a4,4,0,1,1-4,4A4,4,0,0,1,377.377,246.244Z"/><path fill="url(#Z7lAOlLznhYzPRN1iN3bxg)" d="M506.343,392.145,485.134,248.981a107.1,107.1,0,0,0-32.688-76.061A109.284,109.284,0,0,0,376.2,142.475H134.793A107.761,107.761,0,0,0,27.044,251.981L5.847,395.068A77.861,77.861,0,0,0,60.015,480.91a77.1,77.1,0,0,0,22.663,3.4,78.216,78.216,0,0,0,68.484-40.44l71.994-131.492a39.459,39.459,0,0,1,31.994-16.522h2.161a39.388,39.388,0,0,1,31.9,16.385L360.3,444.79a78.211,78.211,0,0,0,68.484,40.44,77.13,77.13,0,0,0,22.663-3.4c37.08-11.384,59.666-48.184,54.926-89.489C506.361,392.275,506.353,392.21,506.343,392.145ZM148.29,424.129a33.987,33.987,0,0,1,32.181-58.776ZM186.3,354.71a46.127,46.127,0,0,0-14.339-3.133,106.2,106.2,0,0,0,22.069-10.986Zm112.881-49.164a51.409,51.409,0,0,0-41.868-21.689H255.15a51.481,51.481,0,0,0-41.96,21.817A96.473,96.473,0,0,1,87.908,333.9a5.834,5.834,0,0,0-7.337,1.423l-.167.2a5.865,5.865,0,0,0,1.636,8.839,107.476,107.476,0,0,0,52.724,13.651q1.89,0,3.792-.064c2.844-.1,5.663-.309,8.455-.616a45.979,45.979,0,0,0-4.551,77.444l-1.823,3.33a65.861,65.861,0,0,1-122.92-41.281l16.1-108.649A106.234,106.234,0,0,0,50.1,317.118a5.871,5.871,0,0,0,9.128.069l.17-.207a5.9,5.9,0,0,0,.03-7.421,95.875,95.875,0,0,1,75.362-155.084H376.1c52.632,0,97.007,43.054,97.05,95.686a95.776,95.776,0,0,1-173.967,55.385Zm18.487,34.371a108.232,108.232,0,0,0,23.044,11.631,46.166,46.166,0,0,0-15.129,3.127ZM447.921,470.358a66.094,66.094,0,0,1-77.075-31.286l-2.084-3.886a45.94,45.94,0,0,0,12.013-12.341,5.682,5.682,0,0,0-2.947-8.523l-.632-.21a5.734,5.734,0,0,0-6.563,2.327,34.014,34.014,0,0,1-7.6,8.067l-31.722-59.145a33.955,33.955,0,0,1,41,15.988,5.694,5.694,0,0,0,3.2,2.7l.91.3a5.68,5.68,0,0,0,6.783-8.075,46.321,46.321,0,0,0-18.554-19.028,108.252,108.252,0,0,0,114-70.156L494.458,393.8C498.482,429.235,479.356,460.706,447.921,470.358Z"/></svg>